# xmcd CD database file
#
# Track frame offsets:
#	150
#	16174
#	36354
#	50182
#
# Disc length: 907 seconds
#
# Revision: 1
# Processed by: cddbd v1.5.1PL2 Copyright (c) Steve Scherf et al.
# Submitted via: CDex 1.51
#
DISCID=2f038904
DTITLE=Diesel - Postcards from the Moon
DYEAR=1900
DGENRE=Rock
TTITLE0=Crazy Town
TTITLE1=Saviour
TTITLE2=No Sign for Like
TTITLE3=Landslide
EXTD=
EXTT0=
EXTT1=
EXTT2=
EXTT3=
PLAYORDER=
